<svg xmlns="http://www.w3.org/2000/svg" viewBox="0 0 600 800" fill="none">
  <rect width="600" height="800" fill="#0a0a0a"/>
  <circle cx="300" cy="300" r="100" fill="#111127"/>
  <circle cx="300" cy="300" r="100" fill="none" stroke="#a855f7" stroke-width="2" opacity="0.3"/>
  <circle cx="300" cy="300" r="80" fill="#0d0d1a"/>
  <path d="M270 270 L280 260 L290 280 L300 250 L310 275 L320 260 L330 270" stroke="#a855f7" stroke-width="2" fill="none" opacity="0.6"/>
  <rect x="200" y="440" width="200" height="12" rx="6" fill="#1a1a2e"/>
  <rect x="220" y="465" width="160" height="8" rx="4" fill="#111127"/>
  <rect x="150" y="520" width="300" height="50" rx="12" fill="#111127"/>
  <rect x="165" y="535" width="40" height="20" rx="10" fill="#a855f7" opacity="0.3"/>
  <rect x="220" y="535" width="40" height="20" rx="10" fill="#3b82f6" opacity="0.3"/>
  <rect x="275" y="535" width="40" height="20" rx="10" fill="#a855f7" opacity="0.3"/>
  <rect x="330" y="535" width="40" height="20" rx="10" fill="#3b82f6" opacity="0.3"/>
  <rect x="385" y="535" width="40" height="20" rx="10" fill="#a855f7" opacity="0.3"/>
  <path d="M200 620 Q250 600 300 620 Q350 640 400 620" stroke="#a855f7" stroke-width="1.5" fill="none" opacity="0.2"/>
  <circle cx="500" cy="200" r="6" fill="#a855f7" opacity="0.15"/>
  <circle cx="100" cy="650" r="10" fill="#3b82f6" opacity="0.1"/>
</svg>
