<svg xmlns="http://www.w3.org/2000/svg" viewBox="0 0 600 800" fill="none">
  <rect width="600" height="800" fill="#0a0a0a"/>
  <rect x="60" y="250" width="480" height="300" rx="20" fill="#111127"/>
  <g opacity="0.6">
    <rect x="90" y="290" width="8" height="120" rx="4" fill="#a855f7"/>
    <rect x="110" y="310" width="8" height="100" rx="4" fill="#3b82f6"/>
    <rect x="130" y="270" width="8" height="140" rx="4" fill="#a855f7"/>
    <rect x="150" y="300" width="8" height="110" rx="4" fill="#3b82f6"/>
    <rect x="170" y="260" width="8" height="150" rx="4" fill="#a855f7"/>
    <rect x="190" y="320" width="8" height="90" rx="4" fill="#3b82f6"/>
    <rect x="210" y="280" width="8" height="130" rx="4" fill="#a855f7"/>
    <rect x="230" y="290" width="8" height="120" rx="4" fill="#3b82f6"/>
    <rect x="250" y="310" width="8" height="100" rx="4" fill="#a855f7"/>
    <rect x="270" y="275" width="8" height="135" rx="4" fill="#3b82f6"/>
    <rect x="290" y="295" width="8" height="115" rx="4" fill="#a855f7"/>
    <rect x="310" y="265" width="8" height="145" rx="4" fill="#3b82f6"/>
    <rect x="330" y="305" width="8" height="105" rx="4" fill="#a855f7"/>
    <rect x="350" y="285" width="8" height="125" rx="4" fill="#3b82f6"/>
    <rect x="370" y="270" width="8" height="140" rx="4" fill="#a855f7"/>
    <rect x="390" y="310" width="8" height="100" rx="4" fill="#3b82f6"/>
    <rect x="410" y="290" width="8" height="120" rx="4" fill="#a855f7"/>
    <rect x="430" y="275" width="8" height="135" rx="4" fill="#3b82f6"/>
    <rect x="450" y="300" width="8" height="110" rx="4" fill="#a855f7"/>
    <rect x="470" y="280" width="8" height="130" rx="4" fill="#3b82f6"/>
    <rect x="490" y="295" width="8" height="115" rx="4" fill="#a855f7"/>
    <rect x="510" y="265" width="8" height="145" rx="4" fill="#3b82f6"/>
  </g>
  <path d="M80 480 Q150 420 220 460 Q290 500 360 440 Q430 380 500 450 L520 470" stroke="#a855f7" stroke-width="3" fill="none" opacity="0.5"/>
  <circle cx="90" cy="180" r="30" fill="none" stroke="#a855f7" stroke-width="2" opacity="0.2"/>
  <circle cx="510" cy="640" r="25" fill="none" stroke="#3b82f6" stroke-width="2" opacity="0.15"/>
</svg>
