<svg xmlns="http://www.w3.org/2000/svg" viewBox="0 0 600 800" fill="none">
  <rect width="600" height="800" fill="#0a0a0a"/>
  <rect x="80" y="300" width="440" height="240" rx="16" fill="#1a1a2e"/>
  <rect x="100" y="320" width="120" height="80" rx="8" fill="#16213e"/>
  <rect x="240" y="320" width="120" height="80" rx="8" fill="#16213e"/>
  <rect x="380" y="320" width="120" height="80" rx="8" fill="#16213e"/>
  <rect x="100" y="420" width="400" height="6" rx="3" fill="#a855f7" opacity="0.6"/>
  <rect x="100" y="436" width="300" height="6" rx="3" fill="#3b82f6" opacity="0.4"/>
  <rect x="100" y="452" width="350" height="6" rx="3" fill="#a855f7" opacity="0.3"/>
  <rect x="100" y="468" width="200" height="6" rx="3" fill="#3b82f6" opacity="0.5"/>
  <rect x="100" y="484" width="280" height="6" rx="3" fill="#a855f7" opacity="0.4"/>
  <circle cx="300" cy="200" r="60" fill="none" stroke="#a855f7" stroke-width="2" opacity="0.3"/>
  <circle cx="300" cy="200" r="40" fill="none" stroke="#3b82f6" stroke-width="2" opacity="0.2"/>
  <path d="M285 185 L320 200 L285 215Z" fill="#a855f7" opacity="0.6"/>
  <circle cx="150" cy="650" r="8" fill="#a855f7" opacity="0.15"/>
  <circle cx="450" cy="150" r="12" fill="#3b82f6" opacity="0.1"/>
  <circle cx="500" cy="680" r="6" fill="#a855f7" opacity="0.2"/>
</svg>
